<mxfile host="app.diagrams.net" modified="2021-11-07T15:05:23.621Z" agent="5.0 (Macintosh; Intel Mac OS X 10_15_7) AppleWebKit/537.36 (KHTML, like Gecko) Chrome/93.0.4577.82 Safari/537.36" etag="-gctlWui9YX8Ed-DOFCZ" version="15.7.0" type="github">
  <diagram id="tRa1csH4-88LfmXuXKnR" name="Page-1">
    <mxGraphModel dx="1113" dy="641" grid="1" gridSize="10" guides="1" tooltips="1" connect="1" arrows="1" fold="1" page="1" pageScale="1" pageWidth="1654" pageHeight="1169" math="0" shadow="0">
      <root>
        <mxCell id="0" />
        <mxCell id="1" parent="0" />
        <mxCell id="4Wosh37YM3WKKmuV432c-3" value="" style="edgeStyle=orthogonalEdgeStyle;rounded=0;orthogonalLoop=1;jettySize=auto;html=1;" parent="1" source="4Wosh37YM3WKKmuV432c-1" target="4Wosh37YM3WKKmuV432c-2" edge="1">
          <mxGeometry relative="1" as="geometry" />
        </mxCell>
        <mxCell id="4Wosh37YM3WKKmuV432c-1" value="开始" style="ellipse;whiteSpace=wrap;html=1;" parent="1" vertex="1">
          <mxGeometry x="142.5" y="80" width="70" height="40" as="geometry" />
        </mxCell>
        <mxCell id="4Wosh37YM3WKKmuV432c-39" style="edgeStyle=orthogonalEdgeStyle;rounded=0;orthogonalLoop=1;jettySize=auto;html=1;exitX=1;exitY=0.5;exitDx=0;exitDy=0;entryX=0;entryY=0.5;entryDx=0;entryDy=0;startArrow=none;" parent="1" source="_BUBwYhiotf9pkntxFAq-21" target="4Wosh37YM3WKKmuV432c-6" edge="1">
          <mxGeometry relative="1" as="geometry" />
        </mxCell>
        <mxCell id="_BUBwYhiotf9pkntxFAq-23" style="edgeStyle=orthogonalEdgeStyle;rounded=0;orthogonalLoop=1;jettySize=auto;html=1;exitX=1;exitY=0.5;exitDx=0;exitDy=0;entryX=0;entryY=0.5;entryDx=0;entryDy=0;" edge="1" parent="1" source="4Wosh37YM3WKKmuV432c-2" target="_BUBwYhiotf9pkntxFAq-21">
          <mxGeometry relative="1" as="geometry">
            <mxPoint x="540" y="100.17647058823536" as="targetPoint" />
          </mxGeometry>
        </mxCell>
        <mxCell id="4Wosh37YM3WKKmuV432c-2" value="Update 开始" style="whiteSpace=wrap;html=1;" parent="1" vertex="1">
          <mxGeometry x="300" y="87.5" width="115" height="25" as="geometry" />
        </mxCell>
        <mxCell id="4Wosh37YM3WKKmuV432c-16" value="" style="edgeStyle=orthogonalEdgeStyle;rounded=0;orthogonalLoop=1;jettySize=auto;html=1;" parent="1" source="4Wosh37YM3WKKmuV432c-4" target="4Wosh37YM3WKKmuV432c-15" edge="1">
          <mxGeometry relative="1" as="geometry" />
        </mxCell>
        <mxCell id="4Wosh37YM3WKKmuV432c-4" value="获取一个没满的房间" style="whiteSpace=wrap;html=1;fillColor=#FFFFCC;" parent="1" vertex="1">
          <mxGeometry x="570" y="440" width="120" height="60" as="geometry" />
        </mxCell>
        <mxCell id="4Wosh37YM3WKKmuV432c-9" style="edgeStyle=orthogonalEdgeStyle;rounded=0;orthogonalLoop=1;jettySize=auto;html=1;exitX=0.5;exitY=1;exitDx=0;exitDy=0;entryX=0.5;entryY=0;entryDx=0;entryDy=0;" parent="1" source="4Wosh37YM3WKKmuV432c-6" target="4Wosh37YM3WKKmuV432c-10" edge="1">
          <mxGeometry relative="1" as="geometry" />
        </mxCell>
        <mxCell id="4Wosh37YM3WKKmuV432c-24" style="edgeStyle=orthogonalEdgeStyle;rounded=0;orthogonalLoop=1;jettySize=auto;html=1;exitX=1;exitY=0.5;exitDx=0;exitDy=0;entryX=0;entryY=0.5;entryDx=0;entryDy=0;startArrow=none;" parent="1" source="_BUBwYhiotf9pkntxFAq-40" target="4Wosh37YM3WKKmuV432c-23" edge="1">
          <mxGeometry relative="1" as="geometry" />
        </mxCell>
        <mxCell id="4Wosh37YM3WKKmuV432c-36" style="edgeStyle=orthogonalEdgeStyle;rounded=0;orthogonalLoop=1;jettySize=auto;html=1;exitX=0.5;exitY=1;exitDx=0;exitDy=0;entryX=0.5;entryY=0;entryDx=0;entryDy=0;" parent="1" source="4Wosh37YM3WKKmuV432c-6" target="4Wosh37YM3WKKmuV432c-35" edge="1">
          <mxGeometry relative="1" as="geometry" />
        </mxCell>
        <mxCell id="4Wosh37YM3WKKmuV432c-68" style="edgeStyle=orthogonalEdgeStyle;rounded=0;orthogonalLoop=1;jettySize=auto;html=1;exitX=0.5;exitY=1;exitDx=0;exitDy=0;entryX=0.5;entryY=0;entryDx=0;entryDy=0;" parent="1" source="4Wosh37YM3WKKmuV432c-6" target="4Wosh37YM3WKKmuV432c-53" edge="1">
          <mxGeometry relative="1" as="geometry" />
        </mxCell>
        <mxCell id="_BUBwYhiotf9pkntxFAq-2" style="edgeStyle=orthogonalEdgeStyle;rounded=0;orthogonalLoop=1;jettySize=auto;html=1;exitX=0.5;exitY=1;exitDx=0;exitDy=0;" edge="1" parent="1" source="4Wosh37YM3WKKmuV432c-6" target="_BUBwYhiotf9pkntxFAq-1">
          <mxGeometry relative="1" as="geometry" />
        </mxCell>
        <mxCell id="_BUBwYhiotf9pkntxFAq-4" style="edgeStyle=orthogonalEdgeStyle;rounded=0;orthogonalLoop=1;jettySize=auto;html=1;exitX=0.5;exitY=1;exitDx=0;exitDy=0;entryX=0.5;entryY=0;entryDx=0;entryDy=0;" edge="1" parent="1" source="4Wosh37YM3WKKmuV432c-6" target="_BUBwYhiotf9pkntxFAq-3">
          <mxGeometry relative="1" as="geometry" />
        </mxCell>
        <mxCell id="_BUBwYhiotf9pkntxFAq-42" style="edgeStyle=orthogonalEdgeStyle;rounded=0;orthogonalLoop=1;jettySize=auto;html=1;exitX=1;exitY=0.5;exitDx=0;exitDy=0;entryX=0;entryY=0.5;entryDx=0;entryDy=0;fontColor=#000000;" edge="1" parent="1" source="4Wosh37YM3WKKmuV432c-6" target="_BUBwYhiotf9pkntxFAq-40">
          <mxGeometry relative="1" as="geometry" />
        </mxCell>
        <mxCell id="4Wosh37YM3WKKmuV432c-6" value="" style="ellipse;whiteSpace=wrap;html=1;aspect=fixed;" parent="1" vertex="1">
          <mxGeometry x="850" y="87.5" width="25" height="25" as="geometry" />
        </mxCell>
        <mxCell id="4Wosh37YM3WKKmuV432c-40" style="edgeStyle=orthogonalEdgeStyle;rounded=0;orthogonalLoop=1;jettySize=auto;html=1;exitX=0.5;exitY=1;exitDx=0;exitDy=0;entryX=0.5;entryY=0;entryDx=0;entryDy=0;" parent="1" source="4Wosh37YM3WKKmuV432c-10" target="4Wosh37YM3WKKmuV432c-12" edge="1">
          <mxGeometry relative="1" as="geometry" />
        </mxCell>
        <mxCell id="4Wosh37YM3WKKmuV432c-10" value="加入房间（场景）" style="rounded=1;whiteSpace=wrap;html=1;fillColor=#cce5ff;strokeColor=#36393d;" parent="1" vertex="1">
          <mxGeometry x="667.5" y="250" width="120" height="60" as="geometry" />
        </mxCell>
        <mxCell id="4Wosh37YM3WKKmuV432c-19" style="edgeStyle=orthogonalEdgeStyle;rounded=0;orthogonalLoop=1;jettySize=auto;html=1;exitX=0.5;exitY=1;exitDx=0;exitDy=0;entryX=0.5;entryY=0;entryDx=0;entryDy=0;" parent="1" source="4Wosh37YM3WKKmuV432c-12" target="4Wosh37YM3WKKmuV432c-17" edge="1">
          <mxGeometry relative="1" as="geometry" />
        </mxCell>
        <mxCell id="4Wosh37YM3WKKmuV432c-41" style="edgeStyle=orthogonalEdgeStyle;rounded=0;orthogonalLoop=1;jettySize=auto;html=1;exitX=0;exitY=0.5;exitDx=0;exitDy=0;entryX=0.5;entryY=0;entryDx=0;entryDy=0;" parent="1" source="4Wosh37YM3WKKmuV432c-12" target="4Wosh37YM3WKKmuV432c-4" edge="1">
          <mxGeometry relative="1" as="geometry" />
        </mxCell>
        <mxCell id="4Wosh37YM3WKKmuV432c-12" value="房间有无过期？" style="rhombus;whiteSpace=wrap;html=1;" parent="1" vertex="1">
          <mxGeometry x="687.5" y="350" width="80" height="80" as="geometry" />
        </mxCell>
        <mxCell id="4Wosh37YM3WKKmuV432c-18" value="" style="edgeStyle=orthogonalEdgeStyle;rounded=0;orthogonalLoop=1;jettySize=auto;html=1;" parent="1" source="4Wosh37YM3WKKmuV432c-15" target="4Wosh37YM3WKKmuV432c-17" edge="1">
          <mxGeometry relative="1" as="geometry" />
        </mxCell>
        <mxCell id="4Wosh37YM3WKKmuV432c-15" value="获取房间用户名称" style="whiteSpace=wrap;html=1;fillColor=#FFFFCC;" parent="1" vertex="1">
          <mxGeometry x="570" y="530" width="120" height="60" as="geometry" />
        </mxCell>
        <mxCell id="4Wosh37YM3WKKmuV432c-21" value="" style="edgeStyle=orthogonalEdgeStyle;rounded=0;orthogonalLoop=1;jettySize=auto;html=1;" parent="1" source="4Wosh37YM3WKKmuV432c-17" target="4Wosh37YM3WKKmuV432c-20" edge="1">
          <mxGeometry relative="1" as="geometry" />
        </mxCell>
        <mxCell id="4Wosh37YM3WKKmuV432c-17" value="显示【加入房间】&lt;br&gt;按钮" style="whiteSpace=wrap;html=1;" parent="1" vertex="1">
          <mxGeometry x="667.5" y="630" width="120" height="60" as="geometry" />
        </mxCell>
        <mxCell id="4Wosh37YM3WKKmuV432c-28" value="" style="edgeStyle=orthogonalEdgeStyle;rounded=0;orthogonalLoop=1;jettySize=auto;html=1;exitX=0;exitY=0.5;exitDx=0;exitDy=0;" parent="1" source="4Wosh37YM3WKKmuV432c-20" target="4Wosh37YM3WKKmuV432c-27" edge="1">
          <mxGeometry relative="1" as="geometry" />
        </mxCell>
        <mxCell id="4Wosh37YM3WKKmuV432c-47" style="edgeStyle=orthogonalEdgeStyle;rounded=0;orthogonalLoop=1;jettySize=auto;html=1;exitX=0.5;exitY=1;exitDx=0;exitDy=0;" parent="1" source="4Wosh37YM3WKKmuV432c-20" target="4Wosh37YM3WKKmuV432c-45" edge="1">
          <mxGeometry relative="1" as="geometry" />
        </mxCell>
        <mxCell id="4Wosh37YM3WKKmuV432c-20" value="有没有点击加入？" style="rhombus;whiteSpace=wrap;html=1;" parent="1" vertex="1">
          <mxGeometry x="667.5" y="730" width="120" height="80" as="geometry" />
        </mxCell>
        <mxCell id="4Wosh37YM3WKKmuV432c-26" style="edgeStyle=orthogonalEdgeStyle;rounded=0;orthogonalLoop=1;jettySize=auto;html=1;exitX=0.5;exitY=0;exitDx=0;exitDy=0;entryX=0.5;entryY=0;entryDx=0;entryDy=0;" parent="1" source="4Wosh37YM3WKKmuV432c-23" target="4Wosh37YM3WKKmuV432c-2" edge="1">
          <mxGeometry relative="1" as="geometry" />
        </mxCell>
        <mxCell id="4Wosh37YM3WKKmuV432c-23" value="Update 结束" style="whiteSpace=wrap;html=1;" parent="1" vertex="1">
          <mxGeometry x="2660" y="87.5" width="115" height="25" as="geometry" />
        </mxCell>
        <mxCell id="4Wosh37YM3WKKmuV432c-33" style="edgeStyle=orthogonalEdgeStyle;rounded=0;orthogonalLoop=1;jettySize=auto;html=1;" parent="1" source="4Wosh37YM3WKKmuV432c-27" target="4Wosh37YM3WKKmuV432c-29" edge="1">
          <mxGeometry relative="1" as="geometry" />
        </mxCell>
        <mxCell id="4Wosh37YM3WKKmuV432c-27" value="加入房间" style="whiteSpace=wrap;html=1;fillColor=#FFFFCC;" parent="1" vertex="1">
          <mxGeometry x="560" y="810" width="120" height="60" as="geometry" />
        </mxCell>
        <mxCell id="4Wosh37YM3WKKmuV432c-46" style="edgeStyle=orthogonalEdgeStyle;rounded=0;orthogonalLoop=1;jettySize=auto;html=1;exitX=0.5;exitY=1;exitDx=0;exitDy=0;entryX=0;entryY=0.5;entryDx=0;entryDy=0;" parent="1" source="4Wosh37YM3WKKmuV432c-29" target="4Wosh37YM3WKKmuV432c-45" edge="1">
          <mxGeometry relative="1" as="geometry" />
        </mxCell>
        <mxCell id="4Wosh37YM3WKKmuV432c-29" value="设置为【等到满员】下一个场景" style="whiteSpace=wrap;html=1;" parent="1" vertex="1">
          <mxGeometry x="561.25" y="910" width="117.5" height="60" as="geometry" />
        </mxCell>
        <mxCell id="4Wosh37YM3WKKmuV432c-50" style="edgeStyle=orthogonalEdgeStyle;rounded=0;orthogonalLoop=1;jettySize=auto;html=1;exitX=0.5;exitY=1;exitDx=0;exitDy=0;entryX=0.5;entryY=0;entryDx=0;entryDy=0;" parent="1" source="4Wosh37YM3WKKmuV432c-35" target="4Wosh37YM3WKKmuV432c-49" edge="1">
          <mxGeometry relative="1" as="geometry" />
        </mxCell>
        <mxCell id="4Wosh37YM3WKKmuV432c-35" value="等到满员（场景）" style="rounded=1;whiteSpace=wrap;html=1;fillColor=#cce5ff;strokeColor=#36393d;" parent="1" vertex="1">
          <mxGeometry x="880" y="250" width="120" height="60" as="geometry" />
        </mxCell>
        <mxCell id="4Wosh37YM3WKKmuV432c-45" value="返回" style="ellipse;whiteSpace=wrap;html=1;" parent="1" vertex="1">
          <mxGeometry x="667.5" y="1010" width="120" height="80" as="geometry" />
        </mxCell>
        <mxCell id="4Wosh37YM3WKKmuV432c-52" value="" style="edgeStyle=orthogonalEdgeStyle;rounded=0;orthogonalLoop=1;jettySize=auto;html=1;" parent="1" source="4Wosh37YM3WKKmuV432c-49" target="4Wosh37YM3WKKmuV432c-51" edge="1">
          <mxGeometry relative="1" as="geometry" />
        </mxCell>
        <mxCell id="4Wosh37YM3WKKmuV432c-60" style="edgeStyle=orthogonalEdgeStyle;rounded=0;orthogonalLoop=1;jettySize=auto;html=1;exitX=1;exitY=0.5;exitDx=0;exitDy=0;entryX=0;entryY=0.5;entryDx=0;entryDy=0;" parent="1" source="4Wosh37YM3WKKmuV432c-49" target="4Wosh37YM3WKKmuV432c-54" edge="1">
          <mxGeometry relative="1" as="geometry" />
        </mxCell>
        <mxCell id="4Wosh37YM3WKKmuV432c-61" value="是" style="edgeLabel;html=1;align=center;verticalAlign=middle;resizable=0;points=[];" parent="4Wosh37YM3WKKmuV432c-60" vertex="1" connectable="0">
          <mxGeometry x="-0.04" relative="1" as="geometry">
            <mxPoint as="offset" />
          </mxGeometry>
        </mxCell>
        <mxCell id="4Wosh37YM3WKKmuV432c-49" value="&lt;span style=&quot;color: rgb(50 , 50 , 50) ; font-size: 13px ; background-color: rgba(255 , 255 , 255 , 0.01)&quot;&gt;房间已经满？&lt;/span&gt;" style="rhombus;whiteSpace=wrap;html=1;" parent="1" vertex="1">
          <mxGeometry x="900" y="360" width="80" height="80" as="geometry" />
        </mxCell>
        <mxCell id="4Wosh37YM3WKKmuV432c-57" value="" style="edgeStyle=orthogonalEdgeStyle;rounded=0;orthogonalLoop=1;jettySize=auto;html=1;" parent="1" source="4Wosh37YM3WKKmuV432c-51" target="4Wosh37YM3WKKmuV432c-56" edge="1">
          <mxGeometry relative="1" as="geometry" />
        </mxCell>
        <mxCell id="4Wosh37YM3WKKmuV432c-51" value="&lt;span style=&quot;color: rgb(50 , 50 , 50) ; font-size: 13px ; background-color: rgba(255 , 255 , 255 , 0.01)&quot;&gt;显示【退出房间】按钮&lt;/span&gt;" style="whiteSpace=wrap;html=1;" parent="1" vertex="1">
          <mxGeometry x="880" y="470" width="120" height="60" as="geometry" />
        </mxCell>
        <mxCell id="4Wosh37YM3WKKmuV432c-76" value="" style="edgeStyle=orthogonalEdgeStyle;rounded=0;orthogonalLoop=1;jettySize=auto;html=1;" parent="1" source="4Wosh37YM3WKKmuV432c-53" target="4Wosh37YM3WKKmuV432c-75" edge="1">
          <mxGeometry relative="1" as="geometry" />
        </mxCell>
        <mxCell id="4Wosh37YM3WKKmuV432c-53" value="开始战斗（场景）" style="rounded=1;whiteSpace=wrap;html=1;fillColor=#cce5ff;strokeColor=#36393d;" parent="1" vertex="1">
          <mxGeometry x="1240" y="250" width="120" height="60" as="geometry" />
        </mxCell>
        <mxCell id="4Wosh37YM3WKKmuV432c-66" style="edgeStyle=orthogonalEdgeStyle;rounded=0;orthogonalLoop=1;jettySize=auto;html=1;exitX=1;exitY=0.5;exitDx=0;exitDy=0;entryX=1;entryY=0.5;entryDx=0;entryDy=0;" parent="1" source="4Wosh37YM3WKKmuV432c-54" target="4Wosh37YM3WKKmuV432c-62" edge="1">
          <mxGeometry relative="1" as="geometry" />
        </mxCell>
        <mxCell id="4Wosh37YM3WKKmuV432c-54" value="设置为下一个场景【开始战斗】" style="whiteSpace=wrap;html=1;" parent="1" vertex="1">
          <mxGeometry x="1010" y="370" width="120" height="60" as="geometry" />
        </mxCell>
        <mxCell id="4Wosh37YM3WKKmuV432c-58" style="edgeStyle=orthogonalEdgeStyle;rounded=0;orthogonalLoop=1;jettySize=auto;html=1;exitX=0.5;exitY=1;exitDx=0;exitDy=0;" parent="1" source="4Wosh37YM3WKKmuV432c-56" target="4Wosh37YM3WKKmuV432c-62" edge="1">
          <mxGeometry relative="1" as="geometry">
            <mxPoint x="940" y="660" as="targetPoint" />
          </mxGeometry>
        </mxCell>
        <mxCell id="4Wosh37YM3WKKmuV432c-64" style="edgeStyle=orthogonalEdgeStyle;rounded=0;orthogonalLoop=1;jettySize=auto;html=1;exitX=1;exitY=0.5;exitDx=0;exitDy=0;entryX=0;entryY=0.5;entryDx=0;entryDy=0;" parent="1" source="4Wosh37YM3WKKmuV432c-56" target="4Wosh37YM3WKKmuV432c-63" edge="1">
          <mxGeometry relative="1" as="geometry" />
        </mxCell>
        <mxCell id="4Wosh37YM3WKKmuV432c-56" value="有没有按退出房间" style="rhombus;whiteSpace=wrap;html=1;" parent="1" vertex="1">
          <mxGeometry x="900" y="570" width="80" height="80" as="geometry" />
        </mxCell>
        <mxCell id="4Wosh37YM3WKKmuV432c-62" value="返回" style="ellipse;whiteSpace=wrap;html=1;" parent="1" vertex="1">
          <mxGeometry x="895" y="710" width="90" height="40" as="geometry" />
        </mxCell>
        <mxCell id="4Wosh37YM3WKKmuV432c-67" style="edgeStyle=orthogonalEdgeStyle;rounded=0;orthogonalLoop=1;jettySize=auto;html=1;exitX=0.5;exitY=1;exitDx=0;exitDy=0;entryX=1;entryY=0;entryDx=0;entryDy=0;" parent="1" source="4Wosh37YM3WKKmuV432c-63" target="4Wosh37YM3WKKmuV432c-62" edge="1">
          <mxGeometry relative="1" as="geometry" />
        </mxCell>
        <mxCell id="4Wosh37YM3WKKmuV432c-63" value="设置为下一个场景【加入房间】" style="whiteSpace=wrap;html=1;" parent="1" vertex="1">
          <mxGeometry x="1010" y="580" width="120" height="60" as="geometry" />
        </mxCell>
        <mxCell id="4Wosh37YM3WKKmuV432c-78" value="" style="edgeStyle=orthogonalEdgeStyle;rounded=0;orthogonalLoop=1;jettySize=auto;html=1;" parent="1" source="4Wosh37YM3WKKmuV432c-75" target="4Wosh37YM3WKKmuV432c-77" edge="1">
          <mxGeometry relative="1" as="geometry" />
        </mxCell>
        <mxCell id="4Wosh37YM3WKKmuV432c-75" value="&lt;span style=&quot;color: rgb(50 , 50 , 50) ; font-size: 13px ; background-color: rgba(255 , 255 , 255 , 0.01)&quot;&gt;发送xy坐标给服务器&lt;/span&gt;" style="rounded=0;whiteSpace=wrap;html=1;fillColor=#ffff88;strokeColor=#36393d;" parent="1" vertex="1">
          <mxGeometry x="1240" y="370" width="120" height="60" as="geometry" />
        </mxCell>
        <mxCell id="4Wosh37YM3WKKmuV432c-96" value="" style="edgeStyle=orthogonalEdgeStyle;rounded=0;orthogonalLoop=1;jettySize=auto;html=1;" parent="1" source="4Wosh37YM3WKKmuV432c-77" target="4Wosh37YM3WKKmuV432c-95" edge="1">
          <mxGeometry relative="1" as="geometry" />
        </mxCell>
        <mxCell id="4Wosh37YM3WKKmuV432c-99" value="" style="edgeStyle=orthogonalEdgeStyle;rounded=0;orthogonalLoop=1;jettySize=auto;html=1;" parent="1" source="4Wosh37YM3WKKmuV432c-77" target="4Wosh37YM3WKKmuV432c-98" edge="1">
          <mxGeometry relative="1" as="geometry" />
        </mxCell>
        <mxCell id="4Wosh37YM3WKKmuV432c-77" value="读取胜负标识&lt;br&gt;胜利与否？" style="rhombus;whiteSpace=wrap;html=1;" parent="1" vertex="1">
          <mxGeometry x="1260" y="490" width="80" height="80" as="geometry" />
        </mxCell>
        <mxCell id="4Wosh37YM3WKKmuV432c-81" value="" style="edgeStyle=orthogonalEdgeStyle;rounded=0;orthogonalLoop=1;jettySize=auto;html=1;" parent="1" source="4Wosh37YM3WKKmuV432c-79" target="4Wosh37YM3WKKmuV432c-80" edge="1">
          <mxGeometry relative="1" as="geometry" />
        </mxCell>
        <mxCell id="4Wosh37YM3WKKmuV432c-79" value="&lt;span style=&quot;color: rgb(50 , 50 , 50) ; font-size: 13px ; background-color: rgba(255 , 255 , 255 , 0.01)&quot;&gt;得到所有角色坐标&lt;/span&gt;" style="rounded=0;whiteSpace=wrap;html=1;fillColor=#ffff88;strokeColor=#36393d;" parent="1" vertex="1">
          <mxGeometry x="1560.06" y="370" width="120" height="60" as="geometry" />
        </mxCell>
        <mxCell id="4Wosh37YM3WKKmuV432c-83" value="" style="edgeStyle=orthogonalEdgeStyle;rounded=0;orthogonalLoop=1;jettySize=auto;html=1;" parent="1" target="4Wosh37YM3WKKmuV432c-87" edge="1">
          <mxGeometry relative="1" as="geometry">
            <mxPoint x="1630.06" y="510" as="sourcePoint" />
          </mxGeometry>
        </mxCell>
        <mxCell id="4Wosh37YM3WKKmuV432c-80" value="&lt;span style=&quot;color: rgb(50 , 50 , 50) ; font-size: 13px ; background-color: rgba(255 , 255 , 255 , 0.01)&quot;&gt;设置所有角色坐标且判断碰撞&lt;/span&gt;" style="whiteSpace=wrap;html=1;rounded=0;" parent="1" vertex="1">
          <mxGeometry x="1560.06" y="480" width="120" height="60" as="geometry" />
        </mxCell>
        <mxCell id="4Wosh37YM3WKKmuV432c-85" value="" style="edgeStyle=orthogonalEdgeStyle;rounded=0;orthogonalLoop=1;jettySize=auto;html=1;" parent="1" source="4Wosh37YM3WKKmuV432c-82" target="4Wosh37YM3WKKmuV432c-84" edge="1">
          <mxGeometry relative="1" as="geometry" />
        </mxCell>
        <mxCell id="4Wosh37YM3WKKmuV432c-92" style="edgeStyle=orthogonalEdgeStyle;rounded=0;orthogonalLoop=1;jettySize=auto;html=1;exitX=1;exitY=0.5;exitDx=0;exitDy=0;entryX=1;entryY=0.5;entryDx=0;entryDy=0;" parent="1" source="4Wosh37YM3WKKmuV432c-82" target="4Wosh37YM3WKKmuV432c-79" edge="1">
          <mxGeometry relative="1" as="geometry">
            <Array as="points">
              <mxPoint x="1710.06" y="740" />
              <mxPoint x="1710.06" y="400" />
            </Array>
          </mxGeometry>
        </mxCell>
        <mxCell id="4Wosh37YM3WKKmuV432c-94" value="没有分出胜负" style="edgeLabel;html=1;align=center;verticalAlign=middle;resizable=0;points=[];" parent="4Wosh37YM3WKKmuV432c-92" vertex="1" connectable="0">
          <mxGeometry x="-0.854" relative="1" as="geometry">
            <mxPoint x="19" y="-20" as="offset" />
          </mxGeometry>
        </mxCell>
        <mxCell id="4Wosh37YM3WKKmuV432c-82" value="&lt;span style=&quot;color: rgb(50 , 50 , 50) ; font-size: 13px ; background-color: rgba(255 , 255 , 255 , 0.01)&quot;&gt;判断胜负&lt;/span&gt;" style="rhombus;whiteSpace=wrap;html=1;fillColor=#FFFFCC;" parent="1" vertex="1">
          <mxGeometry x="1580.06" y="700" width="80" height="80" as="geometry" />
        </mxCell>
        <mxCell id="4Wosh37YM3WKKmuV432c-91" value="" style="edgeStyle=orthogonalEdgeStyle;rounded=0;orthogonalLoop=1;jettySize=auto;html=1;" parent="1" source="4Wosh37YM3WKKmuV432c-84" target="4Wosh37YM3WKKmuV432c-90" edge="1">
          <mxGeometry relative="1" as="geometry" />
        </mxCell>
        <mxCell id="4Wosh37YM3WKKmuV432c-84" value="&lt;span style=&quot;color: rgb(50 , 50 , 50) ; font-size: 13px ; background-color: rgba(255 , 255 , 255 , 0.01)&quot;&gt;设置胜负标识&lt;/span&gt;" style="whiteSpace=wrap;html=1;fillColor=#ffff88;strokeColor=#36393d;" parent="1" vertex="1">
          <mxGeometry x="1565.06" y="810" width="110" height="40" as="geometry" />
        </mxCell>
        <mxCell id="4Wosh37YM3WKKmuV432c-102" value="" style="edgeStyle=orthogonalEdgeStyle;rounded=0;orthogonalLoop=1;jettySize=auto;html=1;" parent="1" source="4Wosh37YM3WKKmuV432c-86" target="4Wosh37YM3WKKmuV432c-97" edge="1">
          <mxGeometry relative="1" as="geometry" />
        </mxCell>
        <mxCell id="4Wosh37YM3WKKmuV432c-86" value="发送退出房间信息&lt;br&gt;中途离开=1" style="rounded=0;whiteSpace=wrap;html=1;fillColor=#FFFFCC;" parent="1" vertex="1">
          <mxGeometry x="1240" y="750" width="120" height="60" as="geometry" />
        </mxCell>
        <mxCell id="4Wosh37YM3WKKmuV432c-88" value="" style="edgeStyle=orthogonalEdgeStyle;rounded=0;orthogonalLoop=1;jettySize=auto;html=1;" parent="1" source="4Wosh37YM3WKKmuV432c-87" target="4Wosh37YM3WKKmuV432c-82" edge="1">
          <mxGeometry relative="1" as="geometry" />
        </mxCell>
        <mxCell id="4Wosh37YM3WKKmuV432c-89" value="否" style="edgeLabel;html=1;align=center;verticalAlign=middle;resizable=0;points=[];" parent="4Wosh37YM3WKKmuV432c-88" vertex="1" connectable="0">
          <mxGeometry x="-0.4515" y="2" relative="1" as="geometry">
            <mxPoint x="-2" y="13" as="offset" />
          </mxGeometry>
        </mxCell>
        <mxCell id="4Wosh37YM3WKKmuV432c-93" style="edgeStyle=orthogonalEdgeStyle;rounded=0;orthogonalLoop=1;jettySize=auto;html=1;exitX=0;exitY=0.5;exitDx=0;exitDy=0;entryX=0;entryY=0.5;entryDx=0;entryDy=0;" parent="1" source="4Wosh37YM3WKKmuV432c-87" target="4Wosh37YM3WKKmuV432c-90" edge="1">
          <mxGeometry relative="1" as="geometry" />
        </mxCell>
        <mxCell id="4Wosh37YM3WKKmuV432c-87" value="是否中途离开=1" style="rhombus;whiteSpace=wrap;html=1;" parent="1" vertex="1">
          <mxGeometry x="1580.06" y="570" width="80" height="80" as="geometry" />
        </mxCell>
        <mxCell id="4Wosh37YM3WKKmuV432c-90" value="结束" style="ellipse;whiteSpace=wrap;html=1;" parent="1" vertex="1">
          <mxGeometry x="1575.06" y="900" width="90" height="40" as="geometry" />
        </mxCell>
        <mxCell id="4Wosh37YM3WKKmuV432c-101" value="" style="edgeStyle=orthogonalEdgeStyle;rounded=0;orthogonalLoop=1;jettySize=auto;html=1;" parent="1" source="4Wosh37YM3WKKmuV432c-95" target="4Wosh37YM3WKKmuV432c-86" edge="1">
          <mxGeometry relative="1" as="geometry" />
        </mxCell>
        <mxCell id="4Wosh37YM3WKKmuV432c-103" style="edgeStyle=orthogonalEdgeStyle;rounded=0;orthogonalLoop=1;jettySize=auto;html=1;exitX=0;exitY=0.5;exitDx=0;exitDy=0;entryX=0;entryY=0.5;entryDx=0;entryDy=0;" parent="1" source="4Wosh37YM3WKKmuV432c-95" target="4Wosh37YM3WKKmuV432c-97" edge="1">
          <mxGeometry relative="1" as="geometry">
            <Array as="points">
              <mxPoint x="1200" y="665" />
              <mxPoint x="1200" y="880" />
            </Array>
          </mxGeometry>
        </mxCell>
        <mxCell id="4Wosh37YM3WKKmuV432c-95" value="退出房间按钮有没有按下？" style="rhombus;whiteSpace=wrap;html=1;" parent="1" vertex="1">
          <mxGeometry x="1260" y="625" width="80" height="80" as="geometry" />
        </mxCell>
        <mxCell id="4Wosh37YM3WKKmuV432c-97" value="返回" style="ellipse;whiteSpace=wrap;html=1;" parent="1" vertex="1">
          <mxGeometry x="1255" y="860" width="90" height="40" as="geometry" />
        </mxCell>
        <mxCell id="4Wosh37YM3WKKmuV432c-100" style="edgeStyle=orthogonalEdgeStyle;rounded=0;orthogonalLoop=1;jettySize=auto;html=1;exitX=0.5;exitY=1;exitDx=0;exitDy=0;entryX=1;entryY=0.5;entryDx=0;entryDy=0;" parent="1" source="4Wosh37YM3WKKmuV432c-98" target="4Wosh37YM3WKKmuV432c-97" edge="1">
          <mxGeometry relative="1" as="geometry" />
        </mxCell>
        <mxCell id="4Wosh37YM3WKKmuV432c-98" value="设置【you win/ you lost 场景】" style="whiteSpace=wrap;html=1;" parent="1" vertex="1">
          <mxGeometry x="1400" y="500" width="120" height="60" as="geometry" />
        </mxCell>
        <mxCell id="_BUBwYhiotf9pkntxFAq-7" value="" style="edgeStyle=orthogonalEdgeStyle;rounded=0;orthogonalLoop=1;jettySize=auto;html=1;" edge="1" parent="1" source="_BUBwYhiotf9pkntxFAq-1" target="_BUBwYhiotf9pkntxFAq-6">
          <mxGeometry relative="1" as="geometry" />
        </mxCell>
        <mxCell id="_BUBwYhiotf9pkntxFAq-1" value="YouWin （场景）" style="rounded=1;whiteSpace=wrap;html=1;fillColor=#cce5ff;strokeColor=#36393d;" vertex="1" parent="1">
          <mxGeometry x="1800" y="250" width="120" height="60" as="geometry" />
        </mxCell>
        <mxCell id="_BUBwYhiotf9pkntxFAq-9" value="" style="edgeStyle=orthogonalEdgeStyle;rounded=0;orthogonalLoop=1;jettySize=auto;html=1;" edge="1" parent="1" source="_BUBwYhiotf9pkntxFAq-3" target="_BUBwYhiotf9pkntxFAq-8">
          <mxGeometry relative="1" as="geometry" />
        </mxCell>
        <mxCell id="_BUBwYhiotf9pkntxFAq-3" value="You lost （场景）" style="rounded=1;whiteSpace=wrap;html=1;fillColor=#cce5ff;strokeColor=#36393d;" vertex="1" parent="1">
          <mxGeometry x="2140" y="250" width="120" height="60" as="geometry" />
        </mxCell>
        <mxCell id="_BUBwYhiotf9pkntxFAq-11" value="" style="edgeStyle=orthogonalEdgeStyle;rounded=0;orthogonalLoop=1;jettySize=auto;html=1;" edge="1" parent="1" source="_BUBwYhiotf9pkntxFAq-6" target="_BUBwYhiotf9pkntxFAq-10">
          <mxGeometry relative="1" as="geometry" />
        </mxCell>
        <mxCell id="_BUBwYhiotf9pkntxFAq-6" value="获取房间分数，离开房间" style="rounded=0;whiteSpace=wrap;html=1;fillColor=#ffff88;strokeColor=#36393d;" vertex="1" parent="1">
          <mxGeometry x="1800" y="370" width="120" height="60" as="geometry" />
        </mxCell>
        <mxCell id="_BUBwYhiotf9pkntxFAq-36" value="" style="edgeStyle=orthogonalEdgeStyle;rounded=0;orthogonalLoop=1;jettySize=auto;html=1;" edge="1" parent="1" source="_BUBwYhiotf9pkntxFAq-8" target="_BUBwYhiotf9pkntxFAq-32">
          <mxGeometry relative="1" as="geometry" />
        </mxCell>
        <mxCell id="_BUBwYhiotf9pkntxFAq-8" value="获取房间分数，离开房间" style="rounded=0;whiteSpace=wrap;html=1;fillColor=#ffff88;strokeColor=#36393d;" vertex="1" parent="1">
          <mxGeometry x="2140" y="370" width="120" height="60" as="geometry" />
        </mxCell>
        <mxCell id="_BUBwYhiotf9pkntxFAq-13" value="" style="edgeStyle=orthogonalEdgeStyle;rounded=0;orthogonalLoop=1;jettySize=auto;html=1;" edge="1" parent="1" source="_BUBwYhiotf9pkntxFAq-10" target="_BUBwYhiotf9pkntxFAq-12">
          <mxGeometry relative="1" as="geometry" />
        </mxCell>
        <mxCell id="_BUBwYhiotf9pkntxFAq-16" value="" style="edgeStyle=orthogonalEdgeStyle;rounded=0;orthogonalLoop=1;jettySize=auto;html=1;" edge="1" parent="1" source="_BUBwYhiotf9pkntxFAq-10" target="_BUBwYhiotf9pkntxFAq-15">
          <mxGeometry relative="1" as="geometry" />
        </mxCell>
        <mxCell id="_BUBwYhiotf9pkntxFAq-17" value="没有，继续展示" style="edgeLabel;html=1;align=center;verticalAlign=middle;resizable=0;points=[];" vertex="1" connectable="0" parent="_BUBwYhiotf9pkntxFAq-16">
          <mxGeometry x="-0.125" y="1" relative="1" as="geometry">
            <mxPoint as="offset" />
          </mxGeometry>
        </mxCell>
        <mxCell id="_BUBwYhiotf9pkntxFAq-10" value="是否按了从新开始" style="rhombus;whiteSpace=wrap;html=1;fillColor=#FFFFCC;" vertex="1" parent="1">
          <mxGeometry x="1820" y="500" width="80" height="80" as="geometry" />
        </mxCell>
        <mxCell id="_BUBwYhiotf9pkntxFAq-28" style="edgeStyle=orthogonalEdgeStyle;rounded=0;orthogonalLoop=1;jettySize=auto;html=1;exitX=0.5;exitY=1;exitDx=0;exitDy=0;entryX=1;entryY=0.5;entryDx=0;entryDy=0;" edge="1" parent="1" source="_BUBwYhiotf9pkntxFAq-12" target="_BUBwYhiotf9pkntxFAq-15">
          <mxGeometry relative="1" as="geometry" />
        </mxCell>
        <mxCell id="_BUBwYhiotf9pkntxFAq-12" value="设置为下一个场景【加入房间】" style="whiteSpace=wrap;html=1;" vertex="1" parent="1">
          <mxGeometry x="1950" y="510" width="120" height="60" as="geometry" />
        </mxCell>
        <mxCell id="_BUBwYhiotf9pkntxFAq-15" value="结束" style="ellipse;whiteSpace=wrap;html=1;" vertex="1" parent="1">
          <mxGeometry x="1815" y="660" width="90" height="40" as="geometry" />
        </mxCell>
        <mxCell id="_BUBwYhiotf9pkntxFAq-25" style="edgeStyle=orthogonalEdgeStyle;rounded=0;orthogonalLoop=1;jettySize=auto;html=1;exitX=0.5;exitY=1;exitDx=0;exitDy=0;entryX=0.5;entryY=0;entryDx=0;entryDy=0;" edge="1" parent="1" source="_BUBwYhiotf9pkntxFAq-21" target="_BUBwYhiotf9pkntxFAq-24">
          <mxGeometry relative="1" as="geometry" />
        </mxCell>
        <mxCell id="_BUBwYhiotf9pkntxFAq-21" value="" style="ellipse;whiteSpace=wrap;html=1;aspect=fixed;" vertex="1" parent="1">
          <mxGeometry x="545" y="87.5" width="25" height="25" as="geometry" />
        </mxCell>
        <mxCell id="_BUBwYhiotf9pkntxFAq-24" value="读取移动方向，移动角色" style="rounded=1;whiteSpace=wrap;html=1;fillColor=#cce5ff;strokeColor=#36393d;" vertex="1" parent="1">
          <mxGeometry x="340" y="240" width="120" height="60" as="geometry" />
        </mxCell>
        <mxCell id="_BUBwYhiotf9pkntxFAq-29" value="" style="edgeStyle=orthogonalEdgeStyle;rounded=0;orthogonalLoop=1;jettySize=auto;html=1;" edge="1" parent="1" source="_BUBwYhiotf9pkntxFAq-32" target="_BUBwYhiotf9pkntxFAq-34">
          <mxGeometry relative="1" as="geometry" />
        </mxCell>
        <mxCell id="_BUBwYhiotf9pkntxFAq-30" value="" style="edgeStyle=orthogonalEdgeStyle;rounded=0;orthogonalLoop=1;jettySize=auto;html=1;" edge="1" parent="1" source="_BUBwYhiotf9pkntxFAq-32" target="_BUBwYhiotf9pkntxFAq-35">
          <mxGeometry relative="1" as="geometry" />
        </mxCell>
        <mxCell id="_BUBwYhiotf9pkntxFAq-31" value="没有，继续展示" style="edgeLabel;html=1;align=center;verticalAlign=middle;resizable=0;points=[];" vertex="1" connectable="0" parent="_BUBwYhiotf9pkntxFAq-30">
          <mxGeometry x="-0.125" y="1" relative="1" as="geometry">
            <mxPoint as="offset" />
          </mxGeometry>
        </mxCell>
        <mxCell id="_BUBwYhiotf9pkntxFAq-32" value="是否按了从新开始" style="rhombus;whiteSpace=wrap;html=1;fillColor=#FFFFCC;" vertex="1" parent="1">
          <mxGeometry x="2165" y="490" width="80" height="80" as="geometry" />
        </mxCell>
        <mxCell id="_BUBwYhiotf9pkntxFAq-33" style="edgeStyle=orthogonalEdgeStyle;rounded=0;orthogonalLoop=1;jettySize=auto;html=1;exitX=0.5;exitY=1;exitDx=0;exitDy=0;entryX=1;entryY=0.5;entryDx=0;entryDy=0;" edge="1" parent="1" source="_BUBwYhiotf9pkntxFAq-34" target="_BUBwYhiotf9pkntxFAq-35">
          <mxGeometry relative="1" as="geometry" />
        </mxCell>
        <mxCell id="_BUBwYhiotf9pkntxFAq-34" value="设置为下一个场景【加入房间】" style="whiteSpace=wrap;html=1;" vertex="1" parent="1">
          <mxGeometry x="2295" y="500" width="120" height="60" as="geometry" />
        </mxCell>
        <mxCell id="_BUBwYhiotf9pkntxFAq-35" value="结束" style="ellipse;whiteSpace=wrap;html=1;" vertex="1" parent="1">
          <mxGeometry x="2160" y="650" width="90" height="40" as="geometry" />
        </mxCell>
        <mxCell id="_BUBwYhiotf9pkntxFAq-37" value="&lt;div style=&quot;line-height: 21px&quot;&gt;&lt;div style=&quot;line-height: 21px&quot;&gt;&lt;font face=&quot;menlo, monaco, courier new, monospace&quot;&gt;&lt;span style=&quot;font-size: 14px&quot;&gt;删除越界的子弹对象&lt;/span&gt;&lt;/font&gt;&lt;/div&gt;&lt;/div&gt;" style="rounded=1;whiteSpace=wrap;html=1;fillColor=#cce5ff;strokeColor=#36393d;" vertex="1" parent="1">
          <mxGeometry x="2350" y="250" width="120" height="60" as="geometry" />
        </mxCell>
        <mxCell id="_BUBwYhiotf9pkntxFAq-38" value="&lt;div style=&quot;line-height: 21px&quot;&gt;&lt;div style=&quot;line-height: 21px&quot;&gt;&lt;span style=&quot;font-size: 14px ; font-family: &amp;#34;menlo&amp;#34; , &amp;#34;monaco&amp;#34; , &amp;#34;courier new&amp;#34; , monospace&quot;&gt;删除越界的敌人对象&lt;/span&gt;&lt;/div&gt;&lt;/div&gt;" style="rounded=1;whiteSpace=wrap;html=1;fillColor=#cce5ff;strokeColor=#36393d;" vertex="1" parent="1">
          <mxGeometry x="2510" y="250" width="120" height="60" as="geometry" />
        </mxCell>
        <mxCell id="_BUBwYhiotf9pkntxFAq-39" value="&lt;div style=&quot;line-height: 21px&quot;&gt;&lt;div style=&quot;line-height: 21px&quot;&gt;&lt;div style=&quot;line-height: 21px&quot;&gt;&lt;span&gt;	&lt;/span&gt;//检查碰撞&lt;/div&gt;&lt;div style=&quot;line-height: 21px&quot;&gt;&lt;span&gt;	&lt;/span&gt;//计算路径&lt;/div&gt;&lt;/div&gt;&lt;/div&gt;" style="rounded=1;whiteSpace=wrap;html=1;fillColor=#cce5ff;strokeColor=#36393d;" vertex="1" parent="1">
          <mxGeometry x="2670" y="250" width="120" height="60" as="geometry" />
        </mxCell>
        <mxCell id="_BUBwYhiotf9pkntxFAq-43" style="edgeStyle=orthogonalEdgeStyle;rounded=0;orthogonalLoop=1;jettySize=auto;html=1;exitX=0.5;exitY=1;exitDx=0;exitDy=0;entryX=0.5;entryY=0;entryDx=0;entryDy=0;fontColor=#000000;" edge="1" parent="1" source="_BUBwYhiotf9pkntxFAq-40" target="_BUBwYhiotf9pkntxFAq-37">
          <mxGeometry relative="1" as="geometry" />
        </mxCell>
        <mxCell id="_BUBwYhiotf9pkntxFAq-44" style="edgeStyle=orthogonalEdgeStyle;rounded=0;orthogonalLoop=1;jettySize=auto;html=1;exitX=0.5;exitY=1;exitDx=0;exitDy=0;fontColor=#000000;" edge="1" parent="1" source="_BUBwYhiotf9pkntxFAq-40" target="_BUBwYhiotf9pkntxFAq-38">
          <mxGeometry relative="1" as="geometry" />
        </mxCell>
        <mxCell id="_BUBwYhiotf9pkntxFAq-45" style="edgeStyle=orthogonalEdgeStyle;rounded=0;orthogonalLoop=1;jettySize=auto;html=1;exitX=0.5;exitY=1;exitDx=0;exitDy=0;fontColor=#000000;" edge="1" parent="1" source="_BUBwYhiotf9pkntxFAq-40" target="_BUBwYhiotf9pkntxFAq-39">
          <mxGeometry relative="1" as="geometry" />
        </mxCell>
        <mxCell id="_BUBwYhiotf9pkntxFAq-40" value="" style="ellipse;whiteSpace=wrap;html=1;aspect=fixed;" vertex="1" parent="1">
          <mxGeometry x="2456" y="87.5" width="25" height="25" as="geometry" />
        </mxCell>
      </root>
    </mxGraphModel>
  </diagram>
</mxfile>
